<svg width="201" height="30" viewBox="0 0 201 30" fill="none" xmlns="http://www.w3.org/2000/svg">
<path d="M10.1807 24H2.24609V6.49512H9.75342C11.3403 6.49512 12.6506 6.95898 13.6841 7.88672C14.7257 8.81445 15.2466 9.89274 15.2466 11.1216C15.2466 11.5854 15.1815 12.029 15.0513 12.4521C14.9211 12.8672 14.7542 13.2131 14.5508 13.4897C14.3473 13.7664 14.1439 14.0065 13.9404 14.21C13.7451 14.4053 13.5824 14.5436 13.4521 14.625L13.2446 14.7471C13.326 14.7796 13.4277 14.8285 13.5498 14.8936C13.68 14.9505 13.9119 15.1011 14.2456 15.3452C14.5793 15.5812 14.8722 15.8416 15.1245 16.1265C15.3768 16.4113 15.6047 16.8019 15.8081 17.2983C16.0197 17.7866 16.1255 18.3115 16.1255 18.873C16.1255 20.2728 15.568 21.4772 14.4531 22.4863C13.3382 23.4954 11.9141 24 10.1807 24ZM6.00586 20.875H9.99756C10.6812 20.875 11.2467 20.6593 11.6943 20.228C12.1501 19.7967 12.3779 19.2637 12.3779 18.6289C12.3779 17.9941 12.1501 17.4611 11.6943 17.0298C11.2467 16.5903 10.6812 16.3706 9.99756 16.3706H6.00586V20.875ZM9.49707 9.62012H6.00586V13.3799H9.49707C10.1156 13.3799 10.6038 13.209 10.9619 12.8672C11.32 12.5254 11.499 12.0697 11.499 11.5C11.499 10.9303 11.32 10.4746 10.9619 10.1328C10.6038 9.79102 10.1156 9.62012 9.49707 9.62012ZM23.8955 11.1704C22.805 12.2772 22.2598 13.6403 22.2598 15.2598C22.2598 16.8711 22.805 18.2301 23.8955 19.3369C24.986 20.4437 26.3125 20.9971 27.875 20.9971C29.4456 20.9971 30.7762 20.4437 31.8667 19.3369C32.9572 18.2301 33.5024 16.8711 33.5024 15.2598C33.5024 13.6403 32.9572 12.2772 31.8667 11.1704C30.7762 10.0555 29.4456 9.49805 27.875 9.49805C26.3125 9.49805 24.986 10.0555 23.8955 11.1704ZM21.1245 21.7051C19.2935 19.9147 18.3779 17.7622 18.3779 15.2476C18.3779 12.7329 19.2935 10.5845 21.1245 8.80225C22.9637 7.02002 25.2139 6.12891 27.875 6.12891C30.5443 6.12891 32.7944 7.02002 34.6255 8.80225C36.4647 10.5845 37.3843 12.7329 37.3843 15.2476C37.3843 17.7622 36.4647 19.9147 34.6255 21.7051C32.7944 23.4873 30.5443 24.3784 27.875 24.3784C25.2139 24.3784 22.9637 23.4873 21.1245 21.7051ZM44.3975 20.6309H53.7725V24H40.6377V6.49512H53.5161V9.87646H44.3975V13.3799H51.5142V16.749H44.3975V20.6309ZM72.0161 6.49512V24H68.2686V16.8711H60.7734V24H57.0137V6.49512H60.7734V13.502H68.2686V6.49512H72.0161ZM85.6455 14.1245L91.7002 6.49512H95.0205V24H91.2729V12.3301L85.6455 19.4956L80.0303 12.3789V24H76.2705V6.49512H79.6519L85.6455 14.1245ZM103.022 20.6309H112.397V24H99.2627V6.49512H112.141V9.87646H103.022V13.3799H110.139V16.749H103.022V20.6309ZM122.145 17.6279L117.897 24H113.637L119.765 14.8691L114.137 6.49512H118.397L122.145 12.1226L125.893 6.49512H130.141L124.513 14.8691L130.641 24H126.393L122.145 17.6279Z" fill="#222222"/>
<path d="M141.902 16.627L139.778 10.8774L137.642 16.627H141.902ZM143.147 19.874H136.397L134.896 24H130.892L137.776 6.49512H141.768L148.653 24H144.649L143.147 19.874ZM158.84 24H150.905V6.49512H158.413C160 6.49512 161.31 6.95898 162.343 7.88672C163.385 8.81445 163.906 9.89274 163.906 11.1216C163.906 11.5854 163.841 12.029 163.71 12.4521C163.58 12.8672 163.413 13.2131 163.21 13.4897C163.007 13.7664 162.803 14.0065 162.6 14.21C162.404 14.4053 162.242 14.5436 162.111 14.625L161.904 14.7471C161.985 14.7796 162.087 14.8285 162.209 14.8936C162.339 14.9505 162.571 15.1011 162.905 15.3452C163.238 15.5812 163.531 15.8416 163.784 16.1265C164.036 16.4113 164.264 16.8019 164.467 17.2983C164.679 17.7866 164.785 18.3115 164.785 18.873C164.785 20.2728 164.227 21.4772 163.112 22.4863C161.997 23.4954 160.573 24 158.84 24ZM154.665 20.875H158.657C159.34 20.875 159.906 20.6593 160.354 20.228C160.809 19.7967 161.037 19.2637 161.037 18.6289C161.037 17.9941 160.809 17.4611 160.354 17.0298C159.906 16.5903 159.34 16.3706 158.657 16.3706H154.665V20.875ZM158.156 9.62012H154.665V13.3799H158.156C158.775 13.3799 159.263 13.209 159.621 12.8672C159.979 12.5254 160.158 12.0697 160.158 11.5C160.158 10.9303 159.979 10.4746 159.621 10.1328C159.263 9.79102 158.775 9.62012 158.156 9.62012ZM165.78 6.49512H179.525V9.87646H174.532V24H170.785V9.87646H165.78V6.49512ZM185.537 11.1704C184.447 12.2772 183.901 13.6403 183.901 15.2598C183.901 16.8711 184.447 18.2301 185.537 19.3369C186.628 20.4437 187.954 20.9971 189.517 20.9971C191.087 20.9971 192.418 20.4437 193.508 19.3369C194.599 18.2301 195.144 16.8711 195.144 15.2598C195.144 13.6403 194.599 12.2772 193.508 11.1704C192.418 10.0555 191.087 9.49805 189.517 9.49805C187.954 9.49805 186.628 10.0555 185.537 11.1704ZM182.766 21.7051C180.935 19.9147 180.02 17.7622 180.02 15.2476C180.02 12.7329 180.935 10.5845 182.766 8.80225C184.605 7.02002 186.855 6.12891 189.517 6.12891C192.186 6.12891 194.436 7.02002 196.267 8.80225C198.106 10.5845 199.026 12.7329 199.026 15.2476C199.026 17.7622 198.106 19.9147 196.267 21.7051C194.436 23.4873 192.186 24.3784 189.517 24.3784C186.855 24.3784 184.605 23.4873 182.766 21.7051Z" fill="#335DD2"/>
</svg>
